<svg fill="none" height="512" viewBox="0 0 24 24" width="512" xmlns="http://www.w3.org/2000/svg"><g clip-rule="evenodd" fill="rgb(0,0,0)" fill-rule="evenodd"><path d="m8.18765 21.3501c.32738.2619.81235.0288.81235-.3904v-5.9194c0-.4192-.48497-.6523-.81235-.3904l-3.69961 2.9597c-.2502.2001-.2502.5807 0 .7808z"/><path d="m15.8123 2.64988c-.3273-.26191-.8123-.02882-.8123.39043v5.91938c0 .41925.485.65234.8123.39043l3.6997-2.95969c.2502-.20016.2502-.5807 0-.78086z"/><path d="m18 6c0-.55228-.4477-1-1-1h-9c-3.31371 0-6 2.68629-6 6 0 .872.18663 1.703.52308 2.4532.226.5039.81773.7292 1.32165.5032.50393-.226.72923-.8177.50322-1.3216-.22326-.4979-.34795-1.0504-.34795-1.6348 0-2.20914 1.79086-4 4-4h9c.5523 0 1-.44772 1-1z"/><path d="m6 18c0 .5523.44772 1 1 1h9c3.3137 0 6-2.6863 6-6 0-.872-.1866-1.703-.5231-2.4532-.226-.5039-.8177-.72922-1.3216-.5032-.504.226-.7293.8177-.5033 1.3216.2233.4979.348 1.0504.348 1.6348 0 2.2091-1.7909 4-4 4h-9c-.55228 0-1 .4477-1 1z"/></g></svg>