<svg id="Layer_1" enable-background="new 0 0 130 130" viewBox="0 0 130 130" xmlns="http://www.w3.org/2000/svg"><g><circle cx="65" cy="65" fill="#27a2db" r="64"/><path d="m96.7 32.3c0-.1 0-.1-.1-.2 0-.1-.1-.3-.1-.4s-.1-.1-.1-.2c-.1-.1-.1-.2-.2-.3 0-.1-.1-.1-.2-.2s-.2-.2-.3-.3c0 0-.1-.1-.1-.1h-.1c-.1-.1-.2-.2-.4-.2-.1 0-.1-.1-.2-.1-.2-.1-.3-.1-.5-.2h-.1c-.2 0-.4-.1-.6-.1-.1 0-.1 0-.2 0s-.3 0-.4.1c0 0 0 0-.1 0l-42.8 10.7c-.1 0-.2.1-.3.1s-.1 0-.2.1c-.2.1-.3.2-.5.2 0 0-.1.1-.1.1-.1.1-.2.2-.3.3 0 0-.1.1-.1.1-.1.1-.1.2-.2.3 0 .1-.1.1-.1.2-.1.1-.1.2-.2.3 0 .1-.1.1-.1.2s-.1.2-.1.3v.2c0 .2-.1.4-.1.5v15.5 21.3c-1.4-.7-2.9-1-4.5-1-5.7 0-10.3 4.6-10.3 10.3s4.6 10.3 10.3 10.3 10.3-4.6 10.3-10.3v-28.4l37.3-9.3v17.6c-1.4-.7-2.9-1-4.5-1-5.7 0-10.3 4.6-10.3 10.3s4.6 10.3 10.3 10.3 10.3-4.7 10.3-10.3v-30.6-15.5c0-.2 0-.4-.1-.6z" fill="#fff"/></g></svg>